<?xml version="1.0" standalone="no"?>
<!DOCTYPE svg PUBLIC "-//W3C//DTD SVG 20010904//EN"
 "http://www.w3.org/TR/2001/REC-SVG-20010904/DTD/svg10.dtd">
<svg version="1.0" xmlns="http://www.w3.org/2000/svg"
 width="1000.000000pt" height="1000.000000pt" viewBox="0 0 1000.000000 1000.000000"
 preserveAspectRatio="xMidYMid meet">

<g transform="translate(0.000000,1000.000000) scale(0.100000,-0.100000)"
fill="#000000" stroke="none">
<path d="M3888 9766 c-90 -109 -217 -324 -272 -459 -71 -176 -100 -322 -99
-502 2 -319 105 -575 381 -939 160 -211 266 -323 492 -517 l65 -56 150 -5
c140 -4 157 -7 259 -41 186 -64 366 -172 477 -289 27 -29 54 -48 67 -48 12 0
22 2 22 5 0 16 -57 269 -86 384 -64 250 -212 713 -227 708 -5 -1 -19 -30 -31
-62 -44 -120 -121 -217 -250 -317 l-91 -70 -6 193 c-10 300 -32 464 -91 694
-47 185 -127 395 -150 395 -6 0 -8 -7 -4 -15 38 -99 -9 -429 -91 -633 -44
-112 -143 -316 -149 -309 -4 3 -1 41 5 84 36 246 30 483 -14 639 -37 127 -81
214 -203 403 -119 182 -154 254 -173 349 -18 96 -7 241 26 332 37 103 39 110
29 109 -5 0 -21 -15 -36 -33z"/>
<path d="M7210 9796 c0 -5 14 -49 31 -99 42 -124 49 -240 20 -359 -25 -108
-55 -167 -166 -333 -145 -218 -207 -366 -235 -560 -14 -103 -12 -266 6 -393
28 -202 20 -201 -73 8 -45 102 -93 224 -107 272 -37 127 -59 305 -53 416 5 86
-2 115 -18 75 -4 -10 -27 -74 -52 -143 -115 -322 -162 -592 -165 -949 -1 -118
-5 -168 -12 -164 -42 25 -200 159 -228 195 -53 64 -94 138 -113 203 -20 69
-32 63 -58 -25 -9 -30 -46 -147 -82 -260 -57 -178 -171 -612 -191 -722 l-6
-38 67 0 c36 0 75 4 85 10 10 5 75 52 145 105 277 207 407 267 614 280 l94 6
86 72 c261 219 576 614 695 869 208 445 158 918 -143 1360 -71 105 -140 190
-141 174z"/>
<path d="M6510 7235 c-77 -17 -153 -47 -235 -93 -81 -46 -293 -194 -299 -209
-6 -16 49 -40 118 -54 74 -14 290 -11 393 6 170 28 314 96 421 201 98 95 88
111 -91 148 -92 19 -219 19 -307 1z m290 -90 c0 -8 -1 -15 -2 -15 -2 -1 -61
-5 -133 -10 -159 -11 -261 -37 -383 -97 -51 -25 -95 -43 -99 -40 -32 33 111
112 282 157 93 25 335 28 335 5z"/>
<path d="M4439 7211 c-82 -18 -142 -41 -153 -60 -10 -16 53 -89 116 -134 166
-117 324 -167 532 -167 172 1 353 34 363 67 9 26 -222 183 -345 236 -160 68
-362 91 -513 58z m331 -67 c124 -27 270 -103 270 -139 0 -28 -21 -25 -79 10
-102 63 -217 96 -356 102 -66 2 -126 7 -134 9 -20 6 4 32 37 38 47 8 185 -2
262 -20z"/>
<path d="M5460 6893 c-74 -7 -198 -47 -272 -85 -110 -59 -192 -123 -361 -285
-168 -162 -288 -247 -414 -295 -76 -29 -82 -33 -78 -57 2 -14 6 -73 9 -131 9
-168 63 -388 136 -555 36 -83 116 -218 186 -310 36 -49 70 -97 75 -108 10 -17
17 -19 63 -11 94 16 321 9 461 -15 251 -43 520 -121 750 -216 107 -44 460
-207 524 -242 25 -14 75 -41 111 -61 98 -53 273 -170 384 -255 54 -43 103 -77
107 -77 11 0 -1 31 -42 111 -49 98 -114 192 -227 329 -57 69 -111 140 -120
158 -15 30 -15 36 -1 60 8 15 30 33 49 39 41 15 139 9 220 -12 30 -8 56 -12
58 -10 3 2 -21 32 -53 67 -151 166 -172 254 -70 302 69 33 270 18 520 -38 185
-42 345 -55 345 -28 0 11 -55 45 -212 130 -335 183 -396 243 -853 832 -356
460 -443 558 -550 625 -90 56 -151 79 -299 116 -108 26 -136 29 -266 27 -80 0
-161 -3 -180 -5z m-408 -577 c48 -20 224 -51 431 -76 244 -29 319 -51 394
-114 60 -51 106 -174 89 -241 -11 -44 -73 -102 -128 -121 -70 -23 -175 -15
-248 19 -119 55 -319 201 -496 362 -62 57 -87 86 -95 115 -9 31 -9 43 1 55 15
18 10 18 52 1z"/>
<path d="M5120 6225 c0 -15 175 -167 270 -236 216 -156 312 -195 414 -165 69
20 96 52 96 114 0 89 -69 164 -181 196 -30 9 -140 24 -245 35 -105 11 -225 29
-267 41 -84 22 -87 22 -87 15z"/>
<path d="M4210 6159 c-55 -22 -280 -71 -570 -124 -361 -66 -491 -96 -701 -164
-332 -108 -693 -280 -949 -451 -369 -248 -697 -607 -910 -995 -18 -33 -47 -87
-66 -120 -102 -185 -214 -489 -253 -685 -34 -174 -41 -252 -41 -453 0 -799
277 -1406 753 -1653 167 -86 399 -148 657 -174 58 -6 305 -15 550 -20 565 -12
712 -26 904 -87 212 -67 439 -228 756 -538 107 -104 229 -220 270 -256 183
-162 342 -259 481 -293 86 -21 364 -23 412 -2 27 11 67 53 67 69 0 3 -33 8
-72 11 -112 11 -251 42 -327 74 -145 61 -233 137 -508 437 -196 214 -425 440
-533 526 -58 45 -206 156 -330 246 -124 90 -269 195 -323 234 -126 92 -155
148 -95 180 33 18 176 11 338 -17 400 -67 735 -202 1008 -407 52 -38 193 -167
315 -286 122 -119 252 -238 289 -264 141 -101 346 -173 464 -164 87 6 217 77
191 103 -3 3 -66 19 -139 34 -268 56 -363 118 -629 406 -652 707 -980 887
-1954 1069 -77 14 -163 31 -192 36 -84 16 -165 63 -230 133 -133 142 -164 316
-99 569 80 311 323 754 546 991 111 118 183 151 228 103 40 -42 54 -103 48
-202 -5 -78 -49 -392 -61 -435 -10 -37 -45 -306 -45 -351 0 -92 46 -156 150
-209 128 -65 125 -65 770 -65 510 0 595 -3 663 -17 160 -35 292 -132 477 -350
63 -75 125 -149 136 -164 12 -16 25 -26 29 -22 14 13 -5 56 -60 134 -30 44
-65 99 -77 124 -19 41 -20 48 -7 84 23 63 37 66 121 22 40 -21 117 -69 170
-107 53 -38 102 -69 107 -69 21 0 10 29 -28 77 -39 47 -117 108 -238 184 -35
21 -63 43 -63 48 0 5 14 23 30 41 29 31 32 32 85 25 87 -10 180 -41 261 -84
82 -44 107 -50 102 -25 -10 50 -163 124 -312 150 -106 20 -146 37 -146 64 0
32 56 85 122 116 65 29 87 31 278 21 19 -1 37 2 40 8 8 16 -40 33 -133 46
-126 19 -235 -1 -393 -71 -213 -93 -194 -89 -523 -106 -319 -17 -515 -14 -776
11 -256 25 -354 42 -415 73 -121 61 -128 144 -33 402 68 186 296 756 326 815
99 198 337 474 495 575 39 25 71 49 71 54 1 6 -30 51 -68 101 -211 276 -322
578 -347 943 -7 110 -9 113 -64 91z"/>
<path d="M8490 4874 c-45 -49 -84 -125 -106 -207 -14 -53 -19 -117 -8 -117 9
0 207 172 234 204 30 35 49 67 50 83 0 7 -14 28 -31 48 -46 52 -84 49 -139
-11z"/>
<path d="M8187 4885 c-46 -46 -53 -80 -34 -153 21 -81 115 -278 127 -266 12
12 30 166 32 271 1 93 -8 125 -46 155 -29 24 -49 22 -79 -7z"/>
<path d="M8684 4671 c-90 -33 -204 -98 -204 -117 0 -17 44 -23 213 -30 146 -6
153 -6 180 15 37 30 38 91 2 126 -20 21 -33 25 -82 24 -32 0 -81 -9 -109 -18z"/>
<path d="M8571 4449 c36 -69 162 -212 217 -249 57 -38 74 -38 107 2 22 26 26
39 22 71 -3 21 -16 50 -29 64 -29 32 -163 96 -244 117 -83 21 -87 21 -73 -5z"/>
<path d="M8195 4317 c-55 -51 -188 -168 -294 -262 -107 -93 -255 -224 -330
-290 -180 -159 -513 -451 -621 -545 -48 -41 -250 -219 -451 -395 -200 -176
-526 -461 -724 -635 -198 -173 -384 -338 -413 -366 -60 -58 -65 -84 -21 -116
42 -32 253 -89 350 -95 145 -9 132 -20 539 442 96 110 234 264 305 344 72 81
157 177 190 216 33 38 103 117 155 176 52 58 174 195 270 304 96 110 236 267
310 350 74 83 227 257 340 385 113 129 250 284 305 345 144 159 208 235 198
235 -4 -1 -53 -42 -108 -93z"/>
<path d="M8333 4273 c-50 -65 -136 -175 -190 -244 -414 -526 -772 -1114 -886
-1453 -37 -112 -40 -129 -41 -236 -1 -113 0 -116 33 -178 21 -38 62 -89 106
-131 124 -117 220 -137 344 -71 65 35 163 126 212 196 123 179 270 640 358
1124 47 257 128 811 141 960 7 74 14 138 17 143 2 4 3 7 1 7 -2 0 -45 -53 -95
-117z m-53 -364 c-29 -107 -79 -284 -112 -394 -72 -241 -171 -595 -192 -688
-32 -138 -89 -213 -188 -248 -109 -38 -233 95 -213 228 7 46 53 141 129 268
24 38 112 196 196 350 84 154 185 334 223 400 38 66 92 158 119 205 54 95 81
123 86 92 2 -10 -20 -106 -48 -213z"/>
<path d="M8193 3854 c-40 -69 -73 -128 -263 -479 -57 -104 -139 -250 -182
-323 -114 -194 -121 -209 -120 -269 1 -87 58 -163 124 -163 13 0 44 13 69 29
55 34 79 81 119 230 115 431 163 597 246 855 30 93 53 173 51 179 -1 5 -21
-21 -44 -59z"/>
<path d="M8493 3868 c4 -553 12 -681 57 -953 51 -305 102 -438 204 -541 118
-118 232 -118 344 -2 105 108 137 188 136 338 -2 228 -82 490 -259 855 -143
294 -439 801 -473 813 -10 3 -12 -106 -9 -510z m143 182 c25 -58 70 -168 99
-245 29 -77 65 -171 79 -208 14 -37 78 -189 142 -338 131 -305 143 -353 106
-425 -46 -90 -142 -138 -228 -114 -88 25 -135 86 -153 201 -6 35 -20 161 -31
279 -12 118 -30 301 -41 405 -19 180 -32 339 -43 504 -6 94 6 85 70 -59z"/>
<path d="M8624 3935 c3 -16 15 -129 26 -250 68 -718 79 -802 111 -854 55 -90
165 -93 237 -5 58 70 50 105 -90 434 -139 323 -176 417 -260 655 -16 44 -31
57 -24 20z"/>
</g>
</svg>
